<?xml version="1.0" encoding="UTF-8"?>
<!-- Created with Inkscape (http://www.inkscape.org/) -->
<svg width="121.24" height="134.08" version="1.1" viewBox="0 0 121.24 134.08" xml:space="preserve" xmlns="http://www.w3.org/2000/svg"><defs><clipPath id="clipPath23"><path d="m0 2e3h2e3v-2e3h-2e3z"/></clipPath></defs><g transform="matrix(1.3333 0 0 -1.3333 -1272.6 1680.1)"><g clip-path="url(#clipPath23)"><g transform="translate(975.36 1241.6)"><path d="m0 0v-18.487h8.253v10.234h10.234v8.253z" fill="#f13e28"/></g><g transform="translate(1017.8 1210.1)"><path d="m0 0c4.003 3.384 6.644 8.377 6.644 14.072 0 9.615-7.8 17.414-17.414 17.414h-8.212v-8.253h8.212c5.034 0 9.161-4.127 9.161-9.161 0-5.613-4.581-10.193-10.193-10.193h-15.557v-8.336h16.589c3.301 0 6.189-1.733 7.799-4.374h8.913c-1.032 3.549-3.136 6.603-5.942 8.831" fill="#f13e28"/></g><g transform="translate(993.85 1241.6)"><path d="m0 0h-18.487v-18.487h8.253v10.234h10.234z" fill="#f13e28"/></g><g transform="translate(1016.2 1196.3)"><path d="m0 0v-10.028h-10.605v-8.253h18.858v18.281z" fill="#262626"/></g><g transform="translate(983.62 1193.2)"><path d="m0 0v24.924h-8.253v-24.924c0-8.377 6.768-15.186 15.145-15.186h10.11v8.253h-10.11c-3.797 0.041-6.892 3.095-6.892 6.933" fill="#f13e28"/></g><g transform="translate(975.36 1241.6)"><path d="m0 0v-18.487h8.253v10.234h10.234v8.253z" fill="#262626"/></g><g transform="translate(1039.8 1219.6)" fill="#262626"><path d="m0 0v24.666c-2e-3 8.76-7.101 15.855-15.861 15.858v-7.381c4.683-9e-3 8.472-3.798 8.481-8.477v-24.666c0-3.612 1.492-6.866 3.884-9.207-2.392-2.341-3.884-5.596-3.884-9.208v-25.762c-9e-3 -4.678-3.798-8.468-8.481-8.476v-7.381c8.76 2e-3 15.859 7.097 15.861 15.857v25.762c6e-3 3.046 2.472 5.513 5.518 5.518v7.381c-3.046 6e-3 -5.512 2.471-5.518 5.516" fill="#262626"/></g><g transform="translate(957.96 1244.3)" fill="#262626"><path d="m0 0v-27.077c-4e-3 -1.955-1.591-3.541-3.543-3.545v-7.38c1.953-4e-3 3.539-1.588 3.543-3.545v-27.295c3e-3 -8.76 7.1-15.855 15.858-15.858v7.381c-4.678 9e-3 -8.469 3.798-8.477 8.477v27.295c-1e-3 2.789-1.078 5.306-2.796 7.235 1.718 1.93 2.795 4.446 2.796 7.235v27.077c8e-3 4.679 3.799 8.468 8.477 8.477v7.381c-8.758-3e-3 -15.855-7.098-15.858-15.858" fill="#262626"/></g></g></g></svg>
